<svg width="1440" height="1023" viewBox="0 0 1440 1023" fill="none" xmlns="http://www.w3.org/2000/svg">
<path d="M1359.08 864.549C1350.64 872.068 1340.86 871.661 1330.46 870.164L1334.55 896.03L1333.18 896.591C1332.45 895.848 1331.23 895.212 1331.06 894.379C1329.3 884.919 1327.7 875.44 1325.9 865.236C1336.7 868.927 1348.45 868.684 1359.08 864.549Z" fill="white"/>
<path d="M1408.67 1009.91C1407.89 1019.09 1403.85 1027.16 1400.31 1035.38L1398.64 1035.3C1398.44 1034.18 1397.78 1032.89 1398.12 1032C1401.09 1024.41 1404.3 1016.94 1407.39 1009.41L1408.67 1009.91Z" fill="white"/>
<path d="M1404.28 979.011L1400.4 950.378C1405.62 956.972 1408.05 972.517 1404.28 979.011Z" fill="white"/>
<path d="M1393.78 1087.67C1390.18 1083.56 1390.49 1069.95 1394.36 1061.39C1394.72 1061.97 1395.3 1062.46 1395.29 1062.93C1395.16 1070.67 1394.97 1078.42 1394.73 1086.17C1394.71 1086.66 1394.13 1087.15 1393.78 1087.67Z" fill="white"/>
<path d="M1409.9 1124.18C1403.74 1123.13 1399.13 1114.97 1398.45 1103.01L1409.9 1124.18Z" fill="white"/>
<path d="M1371.69 907.834C1379.02 910.687 1386.01 919.708 1386.52 925.813C1382.18 924.239 1381.25 920.034 1378.93 917.126C1376.6 914.217 1374.09 910.942 1371.69 907.834Z" fill="white"/>
<path d="M1335.15 875.675C1341.28 878.054 1346.98 881.403 1352.04 885.595C1346.97 886.608 1340.31 882.583 1335.15 875.675Z" fill="white"/>
<path d="M49.2226 106.779C41.4654 91.1403 36.5611 74.4288 38.0036 68.058C40.4227 68.5277 42.81 69.1478 45.1517 69.9147C51.5625 72.4652 57.9199 75.1331 64.2239 77.9183C69.6571 80.3034 74.3371 79.1509 78.4881 75.2612C82.6391 71.3714 86.5016 67.3856 90.6206 63.5919C93.4254 61.0148 96.4705 57.4612 100.686 59.7182C104.42 61.7191 103.715 66.121 103.522 69.6906C103.266 74.8449 102.769 79.9993 102.609 85.1696C102.401 91.5725 104.66 96.3746 110.847 99.2078C117.706 102.409 124.422 105.771 131.073 109.356C132.676 110.253 135.032 112.19 135 113.614C134.968 115.039 132.964 117.328 131.169 117.968C124.353 120.635 117.398 122.932 110.334 124.851C103.923 126.452 101.215 130.63 100.573 136.841C99.7561 144.972 98.8104 153.088 97.8007 161.204C97.1116 166.71 92.8163 168.823 88.6493 165.205C85.2182 161.968 82.2518 158.273 79.8344 154.224C77.5154 150.351 75.4541 146.33 73.6639 142.187C71.8048 138.217 69.1763 136.216 64.4964 136.873C57.2521 137.881 49.9598 138.473 42.6675 139.194C39.013 139.532 35.3397 139.623 31.6729 139.466C28.195 139.306 27.0571 137.257 28.82 134.231C30.6816 131.334 32.6986 128.54 34.8623 125.86C39.5742 119.505 44.3824 113.166 49.2226 106.779ZM98.1694 61.9592C95.7333 64.0082 93.233 65.977 90.8931 68.0899C87.3831 71.2913 83.8892 74.4928 80.5556 77.8383C75.3307 83.1207 69.3366 83.841 62.7815 81.0397C57.9734 79.0068 53.2934 76.9739 48.5334 74.989C46.0812 73.9645 43.597 73.0362 40.039 71.6596C40.8244 74.6689 41.1289 76.3016 41.6417 77.8543C44.3663 85.5538 47.0429 93.2853 50.0079 100.889C50.6576 102.357 50.9757 103.949 50.9397 105.554C50.9037 107.158 50.5144 108.735 49.7995 110.173C48.4568 112.861 46.897 115.436 45.1357 117.872C40.8724 123.699 36.4329 129.397 31.4966 135.896C33.0497 136.082 34.6123 136.178 36.1765 136.184C45.2051 135.448 54.2284 134.669 63.2463 133.847C71.917 133.063 72.7183 133.687 76.7091 141.371C79.9145 147.662 83.6648 153.728 87.4152 159.747C88.7454 161.876 90.6206 164.069 94.0344 162.596C94.1626 161.668 94.3068 160.627 94.435 159.587C95.5569 150.847 96.5186 142.091 97.8488 133.383C98.1164 130.791 99.1864 128.346 100.91 126.39C102.633 124.433 104.925 123.062 107.465 122.466C111.824 121.25 116.168 119.985 120.463 118.544C123.989 117.376 127.403 115.919 130.881 114.591C130.881 114.111 130.881 113.63 130.881 113.15C128.877 112.078 126.874 110.957 124.822 109.949C119.822 107.436 114.886 104.778 109.773 102.505C102.32 99.1918 99.0829 93.4612 99.3554 85.5857C99.5317 80.8636 100.173 76.1415 100.253 71.4194C100.349 68.33 101.84 64.8245 98.1694 61.9272V61.9592Z" fill="white"/>
<path d="M37.3961 1012.88C14.7553 999.81 6.64351 972.856 18.9517 951.537C24.6073 941.731 33.758 934.429 44.5536 931.106C44.8899 927.338 46.0372 923.685 47.9164 920.398C56.2064 906.039 76.4649 902.693 94.0015 912.818C111.538 922.942 118.775 942.065 110.443 956.497C108.829 959.292 106.711 961.763 104.196 963.782C105.815 969.519 106.272 975.527 105.539 981.453C104.805 987.379 102.897 993.103 99.9262 998.288C87.6181 1019.61 60.0734 1025.97 37.3961 1012.88ZM92.9652 914.612C76.3766 905.035 57.349 908.017 49.6299 921.387C47.777 924.607 46.6943 928.212 46.467 931.917C46.4711 932.111 46.422 932.302 46.325 932.47C46.228 932.638 46.0869 932.776 45.9171 932.87C35.3467 935.967 26.3524 943.014 20.7957 952.553C9.03743 972.919 16.8431 998.72 38.5359 1011.24C60.2288 1023.77 86.3931 1017.43 98.0668 997.215C100.975 992.187 102.832 986.622 103.526 980.859C104.221 975.097 103.737 969.258 102.105 963.698C102.053 963.506 102.057 963.302 102.115 963.111C102.174 962.92 102.285 962.75 102.436 962.619C104.988 960.696 107.128 958.277 108.729 955.508C116.512 942.029 109.517 924.169 92.9652 914.612ZM89.6762 993.982C89.4895 993.845 89.3532 993.65 89.2885 993.428C89.2238 993.205 89.2342 992.967 89.3182 992.75C92.0193 986.487 92.9712 979.613 92.0717 972.864C91.1722 966.116 88.4553 959.747 84.2126 954.442C84.0558 954.262 83.9746 954.028 83.9859 953.789C83.9972 953.55 84.1001 953.324 84.2731 953.159C84.4204 952.985 84.6258 952.871 84.8505 952.839C85.0752 952.807 85.3035 952.858 85.4923 952.983C91.3511 956.656 95.556 962.464 97.2266 969.191C98.8972 975.918 97.9039 983.043 94.4547 989.073C93.478 990.779 92.3025 992.363 90.953 993.791C90.8059 993.983 90.5904 994.11 90.3521 994.146C90.1138 994.181 89.8714 994.122 89.6762 993.982ZM89.4691 958.894C94.1708 967.505 95.4801 977.582 93.1394 987.142C95.5137 982.618 96.4355 977.474 95.7784 972.416C95.1212 967.358 92.9172 962.634 89.4691 958.894ZM54.9322 930.895L54.6405 930.727C54.5389 930.615 54.4678 930.478 54.434 930.33C54.4001 930.183 54.4047 930.028 54.4473 929.883C54.7996 928.27 55.3986 926.722 56.2231 925.291C61.8485 915.548 76.3098 913.739 89.1797 921.169C102.05 928.599 107.677 942.007 102.052 951.75C101.429 952.804 100.697 953.789 99.8682 954.69C99.7596 954.81 99.6239 954.903 99.4726 954.96C99.3212 955.017 99.1586 955.037 98.9983 955.018C98.8438 955.014 98.6928 954.972 98.5591 954.895C98.4254 954.818 98.3132 954.708 98.2327 954.576C94.2233 947.307 88.3112 941.277 81.1302 937.132C73.3495 932.619 64.3923 930.543 55.4062 931.169C55.2288 931.116 55.0664 931.022 54.9322 930.895ZM88.2281 922.817C76.3426 915.955 63.0545 917.416 57.979 926.207C57.4808 927.086 57.0753 928.014 56.7691 928.977C65.7063 928.631 74.5471 930.839 82.2606 935.342C89.3337 939.42 95.2391 945.251 99.4133 952.279C99.7594 951.763 100.07 951.224 100.344 950.667C105.456 941.897 100.114 929.679 88.2281 922.817Z" fill="white"/>
</svg>
